<?xml version="1.0" encoding="UTF-8"?>
<svg width="509px" height="509px" viewBox="0 0 509 509" version="1.1" xmlns="http://www.w3.org/2000/svg" xmlns:xlink="http://www.w3.org/1999/xlink">
    <title>breaking</title>
    <g id="Page-1" stroke="none" stroke-width="1" fill="none" fill-rule="evenodd">
        <g id="breaking" fill="#FFFFFF" fill-rule="nonzero">
            <path d="M488.326,34.505 L473.891,20.069 C447.143,-6.677 403.621,-6.677 376.873,20.069 L347.484,49.458 C324.14,72.803 320.872,108.788 338.737,135.722 L317.517,156.942 C307.277,150.16 295.485,146.286 283.025,145.695 C278.901,145.482 275.375,148.692 275.178,152.831 C274.981,156.968 278.176,160.481 282.314,160.678 C291.002,161.091 299.269,163.547 306.629,167.831 L293.961,180.5 C289.493,178.611 284.677,177.609 279.752,177.609 C269.975,177.609 260.783,181.416 253.869,188.328 L245.176,197.021 L233.156,185.001 L241.849,176.308 C245.697,172.459 250.098,169.228 254.93,166.702 C258.601,164.783 260.021,160.252 258.102,156.581 C256.183,152.91 251.653,151.491 247.981,153.409 C241.798,156.64 236.168,160.776 231.242,165.701 L222.228,174.715 C216.558,180.388 216.558,189.617 222.229,195.289 L234.889,207.949 C237.725,210.784 241.45,212.201 245.175,212.201 C248.9,212.201 252.626,210.783 255.463,207.948 L264.475,198.935 C268.555,194.856 273.981,192.609 279.751,192.609 C281.196,192.609 282.624,192.76 284.019,193.039 C282.842,195.899 282.225,198.989 282.225,202.174 C282.225,208.583 284.721,214.609 289.253,219.142 C293.932,223.82 300.075,226.158 306.22,226.158 C309.325,226.158 312.43,225.556 315.347,224.361 C315.693,226.075 315.843,227.84 315.764,229.631 C315.528,235.016 313.123,240.256 308.992,244.387 L300.446,252.933 C294.777,258.605 294.777,267.834 300.448,273.507 L313.106,286.165 C315.854,288.913 319.507,290.427 323.394,290.427 C327.28,290.427 330.934,288.914 333.682,286.166 L342.695,277.153 C366.041,253.806 369.333,217.804 351.463,190.868 L372.656,169.675 C384.155,177.304 397.302,181.086 410.416,181.086 C428.02,181.086 445.557,174.29 458.937,160.91 L468.253,151.594 C471.182,148.664 471.182,143.916 468.253,140.987 C465.323,138.059 460.575,138.059 457.646,140.987 L448.33,150.304 C430.836,167.801 404.253,170.88 383.545,158.786 L396.215,146.116 C400.686,148.003 405.504,149.004 410.429,149.004 C420.204,149.004 429.396,145.197 436.311,138.284 L465.7,108.894 C479.97,94.623 479.97,71.402 465.7,57.13 L451.264,42.695 C444.35,35.782 435.159,31.975 425.383,31.975 C415.607,31.975 406.416,35.782 399.501,42.696 L370.113,72.084 C359.548,82.649 356.656,98.693 362.291,112.167 L349.611,124.848 C337.522,104.14 340.597,77.559 358.093,60.064 L387.482,30.675 C408.379,9.775 442.386,9.777 463.286,30.674 L477.721,45.11 C497.78,65.168 498.725,97.458 479.872,118.621 C477.117,121.714 477.391,126.454 480.484,129.21 C483.576,131.966 488.317,131.692 491.073,128.598 C515.205,101.508 513.999,60.176 488.326,34.505 L488.326,34.505 Z M299.861,208.535 C298.162,206.836 297.225,204.577 297.225,202.175 C297.225,199.772 298.161,197.513 299.861,195.815 L379.634,116.04 C381.388,114.286 383.692,113.409 385.995,113.409 C388.298,113.409 390.602,114.286 392.355,116.04 C394.054,117.739 394.991,119.998 394.991,122.4 C394.991,124.803 394.055,127.062 392.356,128.76 C392.356,128.76 392.356,128.76 392.355,128.76 L312.582,208.535 C309.075,212.043 303.367,212.043 299.861,208.535 L299.861,208.535 Z M332.088,266.546 L323.395,275.239 L311.374,263.218 L319.6,254.993 C326.389,248.203 330.35,239.429 330.751,230.288 C330.993,224.779 330.006,219.394 327.906,214.425 L340.573,201.758 C352.662,222.468 349.583,249.051 332.088,266.546 L332.088,266.546 Z M380.721,82.691 L410.108,53.303 C414.189,49.223 419.614,46.976 425.383,46.976 C431.152,46.976 436.577,49.223 440.657,53.303 L455.092,67.737 C463.515,76.16 463.515,89.866 455.092,98.288 L425.704,127.677 C421.623,131.757 416.198,134.004 410.429,134.004 C409.324,134.004 408.228,133.916 407.148,133.752 C409.005,130.303 409.992,126.427 409.992,122.4 C409.992,115.991 407.496,109.965 402.964,105.432 C395.323,97.793 383.774,96.399 374.699,101.235 C373.7,94.598 375.78,87.632 380.721,82.691 L380.721,82.691 Z" id="Shape"></path>
            <path d="M273.526,300.427 C267.852,294.755 258.626,294.755 252.952,300.427 L244.407,308.972 C240.276,313.104 235.036,315.508 229.652,315.744 C228.161,315.811 226.689,315.715 225.248,315.487 C226.99,312.123 227.918,308.371 227.918,304.474 C227.918,298.064 225.422,292.038 220.89,287.506 C216.357,282.974 210.331,280.478 203.922,280.478 C200.036,280.478 196.295,281.401 192.939,283.132 C191.899,276.456 193.984,269.428 198.955,264.456 L207.968,255.443 C213.64,249.77 213.64,240.541 207.968,234.868 L195.31,222.21 C192.562,219.462 188.909,217.948 185.022,217.948 C181.136,217.948 177.482,219.461 174.734,222.209 L165.721,231.222 C142.375,254.569 139.083,290.571 156.953,317.508 L135.767,338.695 C108.917,320.894 72.989,324.119 49.652,347.301 C46.713,350.221 46.697,354.969 49.616,357.907 C51.083,359.384 53.01,360.122 54.937,360.122 C56.848,360.122 58.759,359.396 60.222,357.943 C77.71,340.572 104.232,337.546 124.873,349.588 L112.198,362.263 C107.729,360.372 102.914,359.369 97.99,359.369 C88.215,359.369 79.023,363.176 72.108,370.09 L42.72,399.478 C28.449,413.749 28.449,436.97 42.719,451.243 L57.155,465.678 C64.069,472.591 73.26,476.398 83.036,476.398 C92.812,476.398 102.003,472.591 108.918,465.678 L138.307,436.288 C148.873,425.721 151.775,409.671 146.138,396.195 L158.809,383.524 C170.899,404.232 167.822,430.814 150.326,448.309 L120.937,477.698 C110.814,487.822 97.353,493.398 83.036,493.398 C68.719,493.398 55.258,487.822 45.135,477.698 L30.7,463.261 C9.801,442.363 9.801,408.357 30.7,387.458 L37.627,380.531 C40.556,377.601 40.556,372.853 37.627,369.924 C34.697,366.996 29.949,366.996 27.02,369.924 L20.093,376.851 C7.136,389.808 -2.84217094e-14,407.036 -2.84217094e-14,425.36 C-2.84217094e-14,443.684 7.136,460.912 20.093,473.869 L34.528,488.304 C47.485,501.261 64.713,508.397 83.037,508.397 C101.361,508.397 118.589,501.261 131.546,488.304 L160.935,458.915 C184.282,435.567 187.574,399.565 169.704,372.629 L190.893,351.44 C202.392,359.068 215.537,362.85 228.653,362.85 C246.256,362.85 263.796,356.053 277.174,342.675 L286.187,333.662 C291.859,327.989 291.859,318.761 286.187,313.088 L273.526,300.427 Z M176.328,241.83 L185.021,233.137 L197.041,245.158 L188.348,253.851 C177.782,264.418 174.88,280.469 180.517,293.945 L167.844,306.618 C155.754,285.908 158.833,259.324 176.328,241.83 L176.328,241.83 Z M117.786,377.888 L197.561,298.113 C199.259,296.414 201.518,295.478 203.921,295.478 C206.323,295.478 208.582,296.415 210.282,298.114 C211.981,299.813 212.917,302.071 212.917,304.474 C212.917,306.876 211.98,309.135 210.281,310.834 L130.507,390.608 C127.002,394.116 121.292,394.118 117.785,390.608 C114.278,387.102 114.279,381.395 117.786,377.888 L117.786,377.888 Z M127.699,425.68 L98.311,455.069 C94.23,459.149 88.805,461.396 83.036,461.396 C77.267,461.396 71.842,459.149 67.762,455.069 L53.327,440.635 C44.904,432.211 44.905,418.506 53.328,410.083 L82.715,380.695 C86.796,376.615 92.221,374.368 97.99,374.368 C99.387,374.368 100.767,374.516 102.119,374.779 C98.369,383.535 100.043,394.08 107.179,401.216 C111.858,405.894 118.002,408.233 124.147,408.233 C127.365,408.233 130.577,407.575 133.585,406.292 C134.9,413.177 132.849,420.53 127.699,425.68 Z M266.567,332.068 C249.071,349.564 222.487,352.642 201.779,340.552 L214.446,327.885 C219.413,329.984 224.797,330.966 230.31,330.731 C239.451,330.33 248.224,326.369 255.014,319.58 L263.239,311.354 L275.26,323.375 L266.567,332.068 Z" id="Shape"></path>
            <path d="M171.841,118.785 C174.637,122.475 178.796,124.497 183.175,124.497 C184.724,124.497 186.3,124.244 187.853,123.723 C193.794,121.726 197.633,116.386 197.633,110.118 L197.633,55.028 C197.633,51.101 196.077,47.435 193.253,44.706 C190.426,41.974 186.7,40.569 182.778,40.676 C167.355,41.201 153.502,46.413 141.602,56.167 C135.651,61.046 134.654,69.705 139.332,75.881 L171.841,118.785 Z M182.633,55.693 L182.633,108.191 L151.665,67.319 C160.779,60.024 170.923,56.216 182.633,55.693 Z" id="Shape"></path>
            <path d="M58.239,200.477 C58.7,200.477 59.167,200.455 59.635,200.411 L113.225,195.339 C119.464,194.748 124.419,190.423 125.847,184.319 C127.275,178.216 124.753,172.141 119.423,168.843 C119.423,168.843 119.423,168.843 119.422,168.843 L72.573,139.861 C69.233,137.795 65.296,137.19 61.491,138.155 C57.68,139.122 54.507,141.533 52.553,144.943 C44.884,158.337 42.029,172.86 44.064,188.11 C45.022,195.276 51.112,200.477 58.239,200.477 L58.239,200.477 Z M115.478,175.221 L111.537,181.602 C111.536,181.601 111.534,181.6 111.533,181.599 L115.478,175.221 Z M65.249,152.968 L109.895,180.587 L58.844,185.419 C57.435,173.832 59.532,163.202 65.249,152.968 Z" id="Shape"></path>
            <path d="M98.112,108.159 C99.594,109.825 101.652,110.675 103.719,110.675 C105.491,110.675 107.272,110.05 108.7,108.779 C111.795,106.026 112.072,101.285 109.32,98.19 L96.117,83.344 C93.363,80.249 88.624,79.972 85.528,82.724 C82.433,85.477 82.156,90.218 84.908,93.313 L98.112,108.159 Z" id="Path"></path>
            <path d="M233.553,91.624 C234.526,92.047 235.539,92.247 236.536,92.247 C239.432,92.247 242.192,90.559 243.419,87.732 L253.423,64.696 C255.073,60.897 253.331,56.479 249.531,54.83 C245.733,53.179 241.313,54.922 239.665,58.722 L229.661,81.758 C228.011,85.556 229.753,89.974 233.553,91.624 L233.553,91.624 Z" id="Path"></path>
            <path d="M82.301,229.118 L59.264,239.121 C55.465,240.771 53.722,245.188 55.371,248.988 C56.599,251.814 59.357,253.503 62.255,253.503 C63.252,253.503 64.266,253.303 65.238,252.881 L88.275,242.878 C92.074,241.228 93.817,236.811 92.168,233.011 C90.518,229.212 86.098,227.468 82.301,229.118 L82.301,229.118 Z" id="Path"></path>
            <path d="M453.366,310.761 L398.277,310.761 C392.008,310.761 386.669,314.6 384.672,320.541 C382.676,326.482 384.613,332.768 389.61,336.553 L432.514,369.062 C435.13,371.043 438.191,372.006 441.222,372.006 C445.346,372.006 449.415,370.222 452.227,366.791 C461.982,354.892 467.194,341.038 467.719,325.615 C467.852,321.687 466.421,317.967 463.689,315.14 C460.959,312.317 457.293,310.761 453.366,310.761 L453.366,310.761 Z M441.075,356.729 L400.204,325.761 L452.701,325.761 C452.179,337.471 448.371,347.614 441.075,356.729 L441.075,356.729 Z" id="Shape"></path>
            <path d="M339.551,388.971 C339.551,388.97 339.551,388.97 339.551,388.971 C336.254,383.642 330.18,381.117 324.075,382.546 C317.971,383.974 313.646,388.929 313.055,395.168 L307.983,448.758 C307.254,456.471 312.656,463.31 320.284,464.327 C323.463,464.752 326.609,464.964 329.722,464.964 C341.539,464.964 352.85,461.909 363.451,455.839 C366.861,453.886 369.272,450.712 370.239,446.901 C371.205,443.093 370.598,439.158 368.533,435.82 L339.551,388.971 Z M322.976,449.551 L327.808,398.5 L355.427,443.146 C345.193,448.862 334.564,450.96 322.976,449.551 Z" id="Shape"></path>
            <path d="M425.05,412.277 L410.204,399.073 C407.108,396.32 402.368,396.599 399.615,399.693 C396.863,402.788 397.14,407.529 400.235,410.282 L415.081,423.486 C416.51,424.757 418.29,425.382 420.062,425.382 C422.129,425.382 424.187,424.532 425.669,422.866 C428.422,419.771 428.145,415.03 425.05,412.277 Z" id="Path"></path>
            <path d="M423.653,279.356 C424.65,279.356 425.664,279.156 426.636,278.733 L449.672,268.729 C453.472,267.08 455.214,262.662 453.564,258.863 C451.914,255.062 447.496,253.319 443.698,254.971 L420.662,264.975 C416.862,266.624 415.12,271.042 416.77,274.841 C417.998,277.669 420.756,279.356 423.653,279.356 Z" id="Path"></path>
            <path d="M275.384,416.226 C271.581,414.579 267.166,416.32 265.517,420.119 L255.514,443.156 C253.865,446.956 255.608,451.373 259.407,453.023 C260.381,453.445 261.393,453.645 262.39,453.645 C265.286,453.645 268.046,451.957 269.274,449.13 L279.277,426.093 C280.926,422.294 279.183,417.877 275.384,416.226 Z" id="Path"></path>
        </g>
    </g>
</svg>
